<svg xmlns="http://www.w3.org/2000/svg" viewBox="0 0 320 180" width="320" height="180" shape-rendering="crispEdges">
  <!-- Subway Car Interior Background -->

  <!-- Ceiling -->
  <rect x="0" y="0" width="320" height="30" fill="#c8c8d0"/>
  <!-- Ceiling panels -->
  <rect x="10" y="4" width="60" height="22" fill="#d0d0d8"/>
  <rect x="80" y="4" width="60" height="22" fill="#d0d0d8"/>
  <rect x="150" y="4" width="60" height="22" fill="#d0d0d8"/>
  <rect x="220" y="4" width="60" height="22" fill="#d0d0d8"/>
  <rect x="290" y="4" width="24" height="22" fill="#d0d0d8"/>
  <!-- Ceiling lights -->
  <rect x="15" y="6" width="50" height="10" fill="#ffffee"/>
  <rect x="15" y="6" width="50" height="3" fill="#ffffff"/>
  <rect x="85" y="6" width="50" height="10" fill="#ffffee"/>
  <rect x="85" y="6" width="50" height="3" fill="#ffffff"/>
  <rect x="155" y="6" width="50" height="10" fill="#ffffee"/>
  <rect x="155" y="6" width="50" height="3" fill="#ffffff"/>
  <rect x="225" y="6" width="50" height="10" fill="#ffffee"/>
  <rect x="225" y="6" width="50" height="3" fill="#ffffff"/>
  <!-- Light glow effect -->
  <rect x="14" y="5" width="52" height="12" fill="#ffffaa" opacity="0.3"/>
  <rect x="84" y="5" width="52" height="12" fill="#ffffaa" opacity="0.3"/>
  <rect x="154" y="5" width="52" height="12" fill="#ffffaa" opacity="0.3"/>
  <rect x="224" y="5" width="52" height="12" fill="#ffffaa" opacity="0.3"/>

  <!-- Upper wall / advertisement board area -->
  <rect x="0" y="28" width="320" height="35" fill="#b0b0b8"/>

  <!-- Advertisement panels -->
  <!-- Ad 1 -->
  <rect x="8" y="32" width="70" height="26" fill="#ffffff"/>
  <rect x="9" y="33" width="68" height="24" fill="#2244aa"/>
  <rect x="12" y="36" width="40" height="6" fill="#ffffff"/>
  <rect x="12" y="44" width="30" height="4" fill="#aaccff"/>
  <rect x="12" y="50" width="50" height="4" fill="#aaccff"/>

  <!-- Ad 2 (sale/promo) -->
  <rect x="88" y="32" width="70" height="26" fill="#ffffff"/>
  <rect x="89" y="33" width="68" height="24" fill="#cc2222"/>
  <rect x="92" y="36" width="30" height="8" fill="#ffffff"/>
  <rect x="124" y="36" width="30" height="8" fill="#ffff00"/>
  <rect x="92" y="46" width="62" height="4" fill="#ffcccc"/>
  <rect x="92" y="52" width="40" height="3" fill="#ffcccc"/>

  <!-- Route map (center) -->
  <rect x="168" y="32" width="140" height="26" fill="#ffffff"/>
  <rect x="170" y="34" width="136" height="22" fill="#f0f0f8"/>
  <!-- Route line -->
  <rect x="175" y="44" width="126" height="4" fill="#2244cc"/>
  <!-- Stations on route -->
  <rect x="178" y="41" width="4" height="10" fill="#2244cc"/>
  <rect x="198" y="41" width="4" height="10" fill="#2244cc"/>
  <rect x="222" y="41" width="4" height="10" fill="#ff4444"/>
  <rect x="246" y="41" width="4" height="10" fill="#2244cc"/>
  <rect x="270" y="41" width="4" height="10" fill="#2244cc"/>
  <rect x="292" y="41" width="4" height="10" fill="#2244cc"/>
  <!-- Current station dot -->
  <rect x="220" y="39" width="8" height="14" fill="#ff4444"/>
  <rect x="222" y="41" width="4" height="10" fill="#ff6666"/>
  <!-- Station labels (pixel) -->
  <rect x="176" y="36" width="8" height="4" fill="#cccccc"/>
  <rect x="196" y="36" width="8" height="4" fill="#cccccc"/>
  <rect x="218" y="36" width="12" height="4" fill="#ff8888"/>
  <rect x="244" y="36" width="8" height="4" fill="#cccccc"/>
  <rect x="268" y="36" width="8" height="4" fill="#cccccc"/>
  <rect x="290" y="36" width="8" height="4" fill="#cccccc"/>

  <!-- Strap/grab handles bar -->
  <rect x="0" y="60" width="320" height="4" fill="#888890"/>
  <rect x="0" y="60" width="320" height="1" fill="#aaaaaa"/>

  <!-- Hanging straps -->
  <!-- Strap group 1 -->
  <rect x="20" y="64" width="3" height="16" fill="#999999"/>
  <rect x="16" y="78" width="11" height="8" fill="#888888"/>
  <rect x="17" y="79" width="9" height="6" fill="#aaaaaa"/>
  <rect x="18" y="80" width="7" height="4" fill="#cccccc"/>
  <!-- Strap group 2 -->
  <rect x="48" y="64" width="3" height="16" fill="#999999"/>
  <rect x="44" y="78" width="11" height="8" fill="#888888"/>
  <rect x="45" y="79" width="9" height="6" fill="#aaaaaa"/>
  <!-- Strap group 3 -->
  <rect x="76" y="64" width="3" height="14" fill="#999999"/>
  <rect x="72" y="76" width="11" height="8" fill="#888888"/>
  <rect x="73" y="77" width="9" height="6" fill="#aaaaaa"/>
  <!-- Strap group 4 -->
  <rect x="104" y="64" width="3" height="16" fill="#999999"/>
  <rect x="100" y="78" width="11" height="8" fill="#888888"/>
  <rect x="101" y="79" width="9" height="6" fill="#aaaaaa"/>
  <!-- Strap group 5 -->
  <rect x="132" y="64" width="3" height="14" fill="#999999"/>
  <rect x="128" y="76" width="11" height="8" fill="#888888"/>
  <rect x="129" y="77" width="9" height="6" fill="#aaaaaa"/>
  <!-- Right side straps -->
  <rect x="200" y="64" width="3" height="16" fill="#999999"/>
  <rect x="196" y="78" width="11" height="8" fill="#888888"/>
  <rect x="197" y="79" width="9" height="6" fill="#aaaaaa"/>
  <rect x="228" y="64" width="3" height="14" fill="#999999"/>
  <rect x="224" y="76" width="11" height="8" fill="#888888"/>
  <rect x="225" y="77" width="9" height="6" fill="#aaaaaa"/>
  <rect x="256" y="64" width="3" height="16" fill="#999999"/>
  <rect x="252" y="78" width="11" height="8" fill="#888888"/>
  <rect x="253" y="79" width="9" height="6" fill="#aaaaaa"/>
  <rect x="284" y="64" width="3" height="14" fill="#999999"/>
  <rect x="280" y="76" width="11" height="8" fill="#888888"/>
  <rect x="281" y="77" width="9" height="6" fill="#aaaaaa"/>

  <!-- Side walls -->
  <rect x="0" y="28" width="6" height="152" fill="#a0a0a8"/>
  <rect x="314" y="28" width="6" height="152" fill="#a0a0a8"/>

  <!-- Left door -->
  <rect x="0" y="60" width="55" height="120" fill="#9090a0"/>
  <!-- Door frame -->
  <rect x="0" y="60" width="55" height="4" fill="#707080"/>
  <rect x="0" y="60" width="4" height="120" fill="#707080"/>
  <rect x="51" y="60" width="4" height="120" fill="#707080"/>
  <rect x="0" y="176" width="55" height="4" fill="#707080"/>
  <!-- Door panel detail -->
  <rect x="6" y="66" width="43" height="108" fill="#a8a8b8"/>
  <rect x="8" y="68" width="39" height="104" fill="#b0b0c0"/>
  <!-- Door window -->
  <rect x="10" y="70" width="35" height="45" fill="#88aacc"/>
  <rect x="10" y="70" width="35" height="45" fill="#aaccee" opacity="0.5"/>
  <!-- Window frame -->
  <rect x="10" y="70" width="35" height="3" fill="#707080"/>
  <rect x="10" y="112" width="35" height="3" fill="#707080"/>
  <rect x="10" y="70" width="3" height="45" fill="#707080"/>
  <rect x="42" y="70" width="3" height="45" fill="#707080"/>
  <!-- Door handle -->
  <rect x="48" y="110" width="4" height="20" fill="#cccccc"/>
  <rect x="49" y="112" width="2" height="16" fill="#888888"/>

  <!-- Right door -->
  <rect x="265" y="60" width="55" height="120" fill="#9090a0"/>
  <rect x="265" y="60" width="55" height="4" fill="#707080"/>
  <rect x="265" y="60" width="4" height="120" fill="#707080"/>
  <rect x="316" y="60" width="4" height="120" fill="#707080"/>
  <rect x="265" y="176" width="55" height="4" fill="#707080"/>
  <rect x="267" y="66" width="43" height="108" fill="#a8a8b8"/>
  <rect x="269" y="68" width="39" height="104" fill="#b0b0c0"/>
  <!-- Right door window -->
  <rect x="275" y="70" width="35" height="45" fill="#88aacc"/>
  <rect x="275" y="70" width="35" height="45" fill="#aaccee" opacity="0.5"/>
  <rect x="275" y="70" width="35" height="3" fill="#707080"/>
  <rect x="275" y="112" width="35" height="3" fill="#707080"/>
  <rect x="275" y="70" width="3" height="45" fill="#707080"/>
  <rect x="307" y="70" width="3" height="45" fill="#707080"/>
  <!-- Right door handle -->
  <rect x="268" y="110" width="4" height="20" fill="#cccccc"/>
  <rect x="269" y="112" width="2" height="16" fill="#888888"/>

  <!-- Main floor area -->
  <rect x="55" y="60" width="210" height="120" fill="#d0c8b8"/>
  <!-- Floor tiles pattern -->
  <rect x="55" y="60" width="210" height="120" fill="#c8c0b0"/>
  <!-- Tile grid (subtle) -->
  <rect x="55" y="80" width="210" height="2" fill="#b8b0a0" opacity="0.5"/>
  <rect x="55" y="100" width="210" height="2" fill="#b8b0a0" opacity="0.5"/>
  <rect x="55" y="120" width="210" height="2" fill="#b8b0a0" opacity="0.5"/>
  <rect x="55" y="140" width="210" height="2" fill="#b8b0a0" opacity="0.5"/>
  <rect x="55" y="160" width="210" height="2" fill="#b8b0a0" opacity="0.5"/>
  <rect x="95" y="60" width="2" height="120" fill="#b8b0a0" opacity="0.4"/>
  <rect x="135" y="60" width="2" height="120" fill="#b8b0a0" opacity="0.4"/>
  <rect x="175" y="60" width="2" height="120" fill="#b8b0a0" opacity="0.4"/>
  <rect x="215" y="60" width="2" height="120" fill="#b8b0a0" opacity="0.4"/>
  <rect x="255" y="60" width="2" height="120" fill="#b8b0a0" opacity="0.4"/>

  <!-- Left bench seat -->
  <rect x="55" y="110" width="75" height="70" fill="#4466aa"/>
  <!-- Seat back -->
  <rect x="55" y="110" width="75" height="25" fill="#3355aa"/>
  <rect x="55" y="110" width="75" height="5" fill="#2244aa"/>
  <!-- Seat cushion -->
  <rect x="55" y="134" width="75" height="46" fill="#5577bb"/>
  <rect x="55" y="134" width="75" height="4" fill="#4466aa"/>
  <!-- Seat divisions -->
  <rect x="75" y="110" width="3" height="70" fill="#2244aa"/>
  <rect x="103" y="110" width="3" height="70" fill="#2244aa"/>
  <!-- Seat shine -->
  <rect x="58" y="136" width="14" height="10" fill="#6688cc" opacity="0.5"/>
  <rect x="80" y="136" width="14" height="10" fill="#6688cc" opacity="0.5"/>
  <rect x="108" y="136" width="14" height="10" fill="#6688cc" opacity="0.5"/>

  <!-- Right bench seat -->
  <rect x="190" y="110" width="75" height="70" fill="#4466aa"/>
  <rect x="190" y="110" width="75" height="25" fill="#3355aa"/>
  <rect x="190" y="110" width="75" height="5" fill="#2244aa"/>
  <rect x="190" y="134" width="75" height="46" fill="#5577bb"/>
  <rect x="190" y="134" width="75" height="4" fill="#4466aa"/>
  <rect x="210" y="110" width="3" height="70" fill="#2244aa"/>
  <rect x="238" y="110" width="3" height="70" fill="#2244aa"/>
  <rect x="193" y="136" width="14" height="10" fill="#6688cc" opacity="0.5"/>
  <rect x="215" y="136" width="14" height="10" fill="#6688cc" opacity="0.5"/>
  <rect x="243" y="136" width="14" height="10" fill="#6688cc" opacity="0.5"/>

  <!-- Pole in center -->
  <rect x="157" y="60" width="6" height="120" fill="#aaaaaa"/>
  <rect x="158" y="60" width="2" height="120" fill="#cccccc"/>
  <rect x="155" y="60" width="10" height="4" fill="#888888"/>

  <!-- Windows above seats (left side) -->
  <rect x="58" y="30" width="60" height="28" fill="#88aacc"/>
  <rect x="58" y="30" width="60" height="28" fill="#bbddff" opacity="0.5"/>
  <!-- City silhouette in window -->
  <rect x="60" y="44" width="8" height="12" fill="#334466" opacity="0.4"/>
  <rect x="70" y="40" width="10" height="16" fill="#334466" opacity="0.4"/>
  <rect x="82" y="46" width="6" height="10" fill="#334466" opacity="0.4"/>
  <rect x="90" y="42" width="12" height="14" fill="#334466" opacity="0.4"/>
  <rect x="104" y="48" width="8" height="8" fill="#334466" opacity="0.4"/>
  <!-- Window frame -->
  <rect x="58" y="30" width="60" height="2" fill="#707080"/>
  <rect x="58" y="56" width="60" height="2" fill="#707080"/>
  <rect x="58" y="30" width="2" height="28" fill="#707080"/>
  <rect x="116" y="30" width="2" height="28" fill="#707080"/>

  <!-- Windows above seats (right side) -->
  <rect x="202" y="30" width="60" height="28" fill="#88aacc"/>
  <rect x="202" y="30" width="60" height="28" fill="#bbddff" opacity="0.5"/>
  <!-- City silhouette right -->
  <rect x="204" y="44" width="10" height="12" fill="#334466" opacity="0.4"/>
  <rect x="216" y="40" width="8" height="16" fill="#334466" opacity="0.4"/>
  <rect x="226" y="46" width="12" height="10" fill="#334466" opacity="0.4"/>
  <rect x="240" y="42" width="8" height="14" fill="#334466" opacity="0.4"/>
  <rect x="250" y="48" width="10" height="8" fill="#334466" opacity="0.4"/>
  <!-- Window frame right -->
  <rect x="202" y="30" width="60" height="2" fill="#707080"/>
  <rect x="202" y="56" width="60" height="2" fill="#707080"/>
  <rect x="202" y="30" width="2" height="28" fill="#707080"/>
  <rect x="260" y="30" width="2" height="28" fill="#707080"/>

  <!-- Speed lines on window (motion blur) -->
  <rect x="60" y="32" width="56" height="1" fill="#ffffff" opacity="0.3"/>
  <rect x="60" y="36" width="30" height="1" fill="#ffffff" opacity="0.2"/>
  <rect x="80" y="38" width="36" height="1" fill="#ffffff" opacity="0.15"/>
  <rect x="204" y="32" width="56" height="1" fill="#ffffff" opacity="0.3"/>
  <rect x="214" y="36" width="30" height="1" fill="#ffffff" opacity="0.2"/>
  <rect x="204" y="38" width="40" height="1" fill="#ffffff" opacity="0.15"/>

  <!-- Floor safety line (yellow) -->
  <rect x="55" y="60" width="210" height="3" fill="#ffcc00"/>
  <rect x="55" y="177" width="210" height="3" fill="#ffcc00"/>

  <!-- Scuff marks on floor (realism) -->
  <rect x="100" y="90" width="20" height="2" fill="#b0a898" opacity="0.6"/>
  <rect x="160" y="145" width="15" height="2" fill="#b0a898" opacity="0.5"/>
  <rect x="230" y="105" width="18" height="2" fill="#b0a898" opacity="0.4"/>

  <!-- Next station display (above center door area) -->
  <rect x="130" y="30" width="60" height="26" fill="#111111"/>
  <rect x="132" y="32" width="56" height="22" fill="#001100"/>
  <!-- LED text simulation -->
  <rect x="135" y="35" width="50" height="6" fill="#00cc00" opacity="0.8"/>
  <rect x="136" y="36" width="48" height="4" fill="#00ff00" opacity="0.6"/>
  <rect x="135" y="43" width="35" height="4" fill="#00aa00" opacity="0.6"/>
  <rect x="172" y="43" width="13" height="4" fill="#ffaa00" opacity="0.7"/>
</svg>
